<svg xmlns="http://www.w3.org/2000/svg" xmlns:xlink="http://www.w3.org/1999/xlink" width="256" height="256" preserveAspectRatio="xMidYMid meet" viewBox="0 0 256 256" style="-ms-transform: rotate(360deg); -webkit-transform: rotate(360deg); transform: rotate(360deg);"><path d="M168.628 160.313A8 8 0 0 1 157.5 171.81a42.777 42.777 0 0 0-59.018 0a8 8 0 0 1-11.127-11.498a58.777 58.777 0 0 1 81.272 0zM211.314 80l18.343-18.343a8 8 0 1 0-11.314-11.314L200 68.686l-18.343-18.343a8 8 0 0 0-11.314 11.314L188.686 80l-18.343 18.343a8 8 0 0 0 11.314 11.314L200 91.314l18.343 18.343a8 8 0 0 0 11.314-11.314zm-68.168-15.183a8 8 0 1 0 1.722-15.906a157.378 157.378 0 0 0-16.876-.908a153.36 153.36 0 0 0-108.555 44.49a8 8 0 0 0 11.253 11.374a137.454 137.454 0 0 1 97.302-39.864a141.545 141.545 0 0 1 15.154.814zm-.407 48.37a8 8 0 1 0 2.566-15.792a108.2 108.2 0 0 0-17.313-1.392a105.738 105.738 0 0 0-74.623 30.415a8 8 0 1 0 11.22 11.406a89.83 89.83 0 0 1 63.403-25.821a92.184 92.184 0 0 1 14.747 1.184zM128 188a12 12 0 1 0 12 12a12.013 12.013 0 0 0-12-12z" fill="#f51f55"/><rect x="0" y="0" width="256" height="256" fill="rgba(0, 0, 0, 0)" /></svg>