<svg xmlns="http://www.w3.org/2000/svg" xmlns:xlink="http://www.w3.org/1999/xlink" width="256" height="256" preserveAspectRatio="xMidYMid meet" viewBox="0 0 256 256" style="-ms-transform: rotate(360deg); -webkit-transform: rotate(360deg); transform: rotate(360deg);"><path d="M77.514 66.474a12 12 0 0 1 .002-16.971l42-41.99a12 12 0 0 1 16.968 0l42 41.99a12 12 0 0 1-16.968 16.973L140 44.966V128a12 12 0 0 1-24 0V44.966l-21.516 21.51a12 12 0 0 1-16.97-.002zM200 88h-24a12 12 0 0 0 0 24h20v92H60v-92h20a12 12 0 0 0 0-24H56a20.023 20.023 0 0 0-20 20v100a20.023 20.023 0 0 0 20 20h144a20.023 20.023 0 0 0 20-20V108a20.023 20.023 0 0 0-20-20z" fill="#FFF"/><rect x="0" y="0" width="256" height="256" fill="rgba(0, 0, 0, 0)" /></svg>