<?xml version="1.0" encoding="UTF-8" standalone="no"?>
<!DOCTYPE svg PUBLIC "-//W3C//DTD SVG 1.1//EN" "http://www.w3.org/Graphics/SVG/1.1/DTD/svg11.dtd">
<svg width="100%" height="100%" viewBox="0 0 1315 498" version="1.1" xmlns="http://www.w3.org/2000/svg" xmlns:xlink="http://www.w3.org/1999/xlink" xml:space="preserve" xmlns:serif="http://www.serif.com/" style="fill-rule:evenodd;clip-rule:evenodd;stroke-linejoin:round;stroke-miterlimit:2;">
    <g transform="matrix(1,0,0,1,-576.017,-1401.69)">
        <g transform="matrix(1,0,0,1,14.2701,749.799)">
            <g transform="matrix(209.232,0,0,209.232,629.265,1024)">
                <path d="M0.322,0.009C0.269,0.009 0.216,0.002 0.164,-0.012C0.112,-0.026 0.07,-0.045 0.037,-0.069L0.096,-0.202C0.131,-0.18 0.167,-0.163 0.207,-0.152C0.246,-0.14 0.285,-0.134 0.324,-0.134C0.364,-0.134 0.395,-0.139 0.416,-0.151C0.437,-0.162 0.448,-0.177 0.448,-0.197C0.448,-0.215 0.438,-0.23 0.419,-0.242C0.4,-0.253 0.363,-0.265 0.31,-0.276C0.243,-0.289 0.19,-0.306 0.153,-0.326C0.116,-0.345 0.09,-0.368 0.075,-0.395C0.059,-0.422 0.052,-0.454 0.052,-0.492C0.052,-0.535 0.064,-0.575 0.089,-0.61C0.114,-0.645 0.148,-0.672 0.193,-0.692C0.238,-0.711 0.289,-0.721 0.346,-0.721C0.397,-0.721 0.447,-0.714 0.496,-0.7C0.544,-0.685 0.582,-0.666 0.609,-0.643L0.551,-0.51C0.52,-0.532 0.487,-0.549 0.452,-0.561C0.417,-0.572 0.383,-0.578 0.348,-0.578C0.314,-0.578 0.287,-0.572 0.266,-0.559C0.245,-0.546 0.235,-0.528 0.235,-0.506C0.235,-0.494 0.239,-0.484 0.246,-0.476C0.253,-0.468 0.267,-0.46 0.287,-0.453C0.307,-0.445 0.337,-0.437 0.377,-0.428C0.442,-0.414 0.493,-0.397 0.53,-0.378C0.567,-0.358 0.593,-0.335 0.608,-0.309C0.623,-0.282 0.631,-0.251 0.631,-0.214C0.631,-0.145 0.604,-0.09 0.55,-0.051C0.496,-0.011 0.42,0.009 0.322,0.009Z" style="fill:white;fill-rule:nonzero;"/>
            </g>
            <g transform="matrix(209.232,0,0,209.232,767.359,1024)">
                <path d="M0.354,-0.138C0.366,-0.138 0.382,-0.14 0.402,-0.144L0.402,-0.007C0.377,0.003 0.346,0.008 0.308,0.008C0.239,0.008 0.187,-0.011 0.152,-0.05C0.116,-0.089 0.098,-0.142 0.098,-0.211L0.098,-0.375L0.003,-0.375L0.003,-0.508L0.098,-0.508L0.098,-0.623L0.279,-0.681L0.279,-0.508L0.401,-0.508L0.401,-0.375L0.279,-0.375L0.279,-0.211C0.279,-0.187 0.286,-0.169 0.301,-0.157C0.315,-0.144 0.333,-0.138 0.354,-0.138Z" style="fill:white;fill-rule:nonzero;"/>
            </g>
            <g transform="matrix(209.232,0,0,209.232,854.4,1024)">
                <path d="M0.589,-0.508L0.589,-0L0.411,-0L0.411,-0.069C0.396,-0.045 0.375,-0.026 0.347,-0.013C0.319,0.001 0.288,0.008 0.255,0.008C0.212,0.008 0.173,-0.003 0.139,-0.024C0.105,-0.045 0.079,-0.076 0.06,-0.116C0.041,-0.155 0.031,-0.201 0.031,-0.253C0.031,-0.306 0.041,-0.352 0.06,-0.393C0.079,-0.434 0.106,-0.465 0.14,-0.488C0.174,-0.511 0.212,-0.522 0.255,-0.522C0.288,-0.522 0.319,-0.515 0.347,-0.501C0.374,-0.486 0.396,-0.467 0.411,-0.443L0.411,-0.508L0.589,-0.508ZM0.311,-0.127C0.343,-0.127 0.368,-0.138 0.385,-0.16C0.402,-0.182 0.411,-0.214 0.411,-0.255C0.411,-0.297 0.402,-0.329 0.385,-0.352C0.368,-0.374 0.343,-0.385 0.311,-0.385C0.28,-0.385 0.255,-0.374 0.237,-0.351C0.219,-0.328 0.21,-0.295 0.21,-0.253C0.21,-0.212 0.219,-0.181 0.236,-0.16C0.253,-0.138 0.278,-0.127 0.311,-0.127Z" style="fill:white;fill-rule:nonzero;"/>
            </g>
            <g transform="matrix(209.232,0,0,209.232,988.936,1024)">
                <path d="M0.375,-0.52C0.4,-0.52 0.419,-0.516 0.432,-0.509L0.432,-0.344C0.403,-0.357 0.376,-0.364 0.349,-0.364C0.273,-0.364 0.235,-0.328 0.235,-0.255L0.235,-0L0.054,-0L0.054,-0.362C0.054,-0.417 0.051,-0.465 0.046,-0.508L0.216,-0.508L0.227,-0.423C0.239,-0.454 0.258,-0.478 0.285,-0.495C0.312,-0.512 0.342,-0.52 0.375,-0.52Z" style="fill:white;fill-rule:nonzero;"/>
            </g>
            <g transform="matrix(209.232,0,0,209.232,1076.81,1024)">
                <path d="M0.595,-0.508L0.595,-0.032C0.595,0.051 0.57,0.115 0.52,0.159C0.47,0.202 0.397,0.224 0.3,0.224C0.217,0.224 0.146,0.209 0.085,0.18L0.112,0.048C0.142,0.061 0.173,0.072 0.205,0.08C0.236,0.087 0.266,0.091 0.294,0.091C0.335,0.091 0.366,0.082 0.386,0.065C0.405,0.047 0.415,0.019 0.415,-0.018L0.415,-0.093C0.398,-0.071 0.376,-0.052 0.348,-0.037C0.319,-0.022 0.289,-0.014 0.257,-0.014C0.214,-0.014 0.175,-0.024 0.141,-0.046C0.106,-0.067 0.079,-0.096 0.06,-0.135C0.041,-0.173 0.031,-0.217 0.031,-0.268C0.031,-0.318 0.041,-0.362 0.06,-0.401C0.079,-0.439 0.106,-0.469 0.141,-0.49C0.175,-0.511 0.214,-0.522 0.257,-0.522C0.291,-0.522 0.322,-0.515 0.35,-0.501C0.378,-0.487 0.4,-0.468 0.415,-0.444L0.415,-0.508L0.595,-0.508ZM0.313,-0.149C0.345,-0.149 0.37,-0.16 0.388,-0.181C0.406,-0.202 0.415,-0.231 0.415,-0.268C0.415,-0.304 0.406,-0.333 0.388,-0.354C0.37,-0.375 0.345,-0.385 0.313,-0.385C0.281,-0.385 0.256,-0.375 0.238,-0.354C0.219,-0.333 0.21,-0.305 0.21,-0.268C0.21,-0.231 0.219,-0.202 0.238,-0.181C0.257,-0.16 0.282,-0.149 0.313,-0.149Z" style="fill:white;fill-rule:nonzero;"/>
            </g>
            <g transform="matrix(209.232,0,0,209.232,1212.19,1024)">
                <path d="M0.589,-0.508L0.589,-0L0.411,-0L0.411,-0.069C0.396,-0.045 0.375,-0.026 0.347,-0.013C0.319,0.001 0.288,0.008 0.255,0.008C0.212,0.008 0.173,-0.003 0.139,-0.024C0.105,-0.045 0.079,-0.076 0.06,-0.116C0.041,-0.155 0.031,-0.201 0.031,-0.253C0.031,-0.306 0.041,-0.352 0.06,-0.393C0.079,-0.434 0.106,-0.465 0.14,-0.488C0.174,-0.511 0.212,-0.522 0.255,-0.522C0.288,-0.522 0.319,-0.515 0.347,-0.501C0.374,-0.486 0.396,-0.467 0.411,-0.443L0.411,-0.508L0.589,-0.508ZM0.311,-0.127C0.343,-0.127 0.368,-0.138 0.385,-0.16C0.402,-0.182 0.411,-0.214 0.411,-0.255C0.411,-0.297 0.402,-0.329 0.385,-0.352C0.368,-0.374 0.343,-0.385 0.311,-0.385C0.28,-0.385 0.255,-0.374 0.237,-0.351C0.219,-0.328 0.21,-0.295 0.21,-0.253C0.21,-0.212 0.219,-0.181 0.236,-0.16C0.253,-0.138 0.278,-0.127 0.311,-0.127Z" style="fill:white;fill-rule:nonzero;"/>
            </g>
            <g transform="matrix(209.232,0,0,209.232,1346.72,1024)">
                <path d="M0.504,-0.134L0.504,-0L0.047,-0L0.047,-0.127L0.277,-0.375L0.048,-0.375L0.048,-0.508L0.494,-0.508L0.494,-0.389L0.258,-0.134L0.504,-0.134Z" style="fill:white;fill-rule:nonzero;"/>
            </g>
            <g transform="matrix(209.232,0,0,209.232,1455.32,1024)">
                <path d="M0.523,-0.236L0.204,-0.236C0.207,-0.197 0.219,-0.168 0.238,-0.151C0.257,-0.134 0.286,-0.125 0.323,-0.125C0.348,-0.125 0.374,-0.129 0.399,-0.138C0.424,-0.146 0.447,-0.157 0.468,-0.172L0.514,-0.052C0.489,-0.033 0.458,-0.019 0.422,-0.008C0.386,0.003 0.35,0.008 0.314,0.008C0.256,0.008 0.206,-0.003 0.163,-0.024C0.12,-0.045 0.088,-0.076 0.065,-0.116C0.042,-0.155 0.031,-0.202 0.031,-0.256C0.031,-0.307 0.042,-0.353 0.064,-0.394C0.085,-0.434 0.115,-0.465 0.154,-0.488C0.192,-0.511 0.236,-0.522 0.285,-0.522C0.333,-0.522 0.375,-0.511 0.411,-0.49C0.447,-0.469 0.475,-0.438 0.494,-0.399C0.513,-0.359 0.523,-0.313 0.523,-0.26L0.523,-0.236ZM0.29,-0.398C0.245,-0.398 0.217,-0.372 0.206,-0.32L0.368,-0.32C0.361,-0.372 0.335,-0.398 0.29,-0.398Z" style="fill:white;fill-rule:nonzero;"/>
            </g>
            <g transform="matrix(209.232,0,0,209.232,1571.02,1024)">
                <path d="M0.375,-0.52C0.4,-0.52 0.419,-0.516 0.432,-0.509L0.432,-0.344C0.403,-0.357 0.376,-0.364 0.349,-0.364C0.273,-0.364 0.235,-0.328 0.235,-0.255L0.235,-0L0.054,-0L0.054,-0.362C0.054,-0.417 0.051,-0.465 0.046,-0.508L0.216,-0.508L0.227,-0.423C0.239,-0.454 0.258,-0.478 0.285,-0.495C0.312,-0.512 0.342,-0.52 0.375,-0.52Z" style="fill:white;fill-rule:nonzero;"/>
            </g>
        </g>
        <g transform="matrix(-0.22849,0,0,-0.22849,1818.04,1698.31)">
            <path d="M386.9,104.3L383.8,107.4C360.9,301.4 207.1,455.2 13.1,478.1L10,481.2L13.1,484.3C207.1,507.2 360.9,661 383.8,855L386.9,858.1L390,855C412.9,661 566.7,507.2 760.7,484.3L763.8,481.2L760.7,478.1C566.7,455.2 412.9,301.4 390,107.4L386.9,104.3ZM745,613.1L743.5,614.6C733.1,701.8 664.1,770.9 576.8,781.2L575.3,782.7L576.8,784.2C664,794.6 733.1,863.6 743.5,950.8L745,952.3L746.5,950.8C756.9,863.6 825.9,794.5 913.2,784.2L914.7,782.7L913.2,781.2C826,770.8 756.9,701.8 746.5,614.6L745,613.1Z" style="fill:white;fill-rule:nonzero;"/>
        </g>
    </g>
</svg>
